<svg xmlns="http://www.w3.org/2000/svg" viewBox="0 0 150 128" role="img" aria-labelledby="t">
  <title id="t">Jockes Taxi — väderkvarn och rauk på Gotland</title>
  <g fill="none" stroke="#0C4A45" stroke-width="2.1" stroke-linecap="round" stroke-linejoin="round">
    <path d="M6,106 C36,103 60,103 82,105 C104,107 128,105 144,103"/>
    
    <path d="M33,106 C35,88 37,72 39,58 L57,58 C59,72 61,88 63,106"/>
    <path d="M34,58 C33,46 40,40 48,40 C56,40 63,46 62,58 Z"/>
    <path d="M48,40 L48,35"/>
    <path d="M43,106 L43,93 Q43,90 47,90 L49,90 Q53,90 53,93 L53,106" stroke-width="1.4"/>
    <circle cx="48" cy="80" r="2.6" stroke-width="1.2"/>
    <path d="M47.6,59.5 L64.5,76.5 L70.5,70.5 L53.5,53.6 Z" stroke-width="1.7"/>
    <path d="M50.5,56.5 L67.5,73.5" stroke-width="1.0"/>
    <path d="M51.0,62.9 L56.9,57.0" stroke-width="0.9"/>
    <path d="M54.4,66.3 L60.3,60.4" stroke-width="0.9"/>
    <path d="M57.7,69.7 L63.7,63.7" stroke-width="0.9"/>
    <path d="M61.1,73.1 L67.1,67.1" stroke-width="0.9"/>
    <path d="M40.5,53.6 L23.5,70.5 L29.5,76.5 L46.4,59.5 Z" stroke-width="1.7"/>
    <path d="M43.5,56.5 L26.5,73.5" stroke-width="1.0"/>
    <path d="M37.1,57.0 L43.0,62.9" stroke-width="0.9"/>
    <path d="M33.7,60.4 L39.6,66.3" stroke-width="0.9"/>
    <path d="M30.3,63.7 L36.3,69.7" stroke-width="0.9"/>
    <path d="M26.9,67.1 L32.9,73.1" stroke-width="0.9"/>
    <path d="M46.4,46.5 L29.5,29.5 L23.5,35.5 L40.5,52.4 Z" stroke-width="1.7"/>
    <path d="M43.5,49.5 L26.5,32.5" stroke-width="1.0"/>
    <path d="M43.0,43.1 L37.1,49.0" stroke-width="0.9"/>
    <path d="M39.6,39.7 L33.7,45.6" stroke-width="0.9"/>
    <path d="M36.3,36.3 L30.3,42.3" stroke-width="0.9"/>
    <path d="M32.9,32.9 L26.9,38.9" stroke-width="0.9"/>
    <path d="M53.5,52.4 L70.5,35.5 L64.5,29.5 L47.6,46.5 Z" stroke-width="1.7"/>
    <path d="M50.5,49.5 L67.5,32.5" stroke-width="1.0"/>
    <path d="M56.9,49.0 L51.0,43.1" stroke-width="0.9"/>
    <path d="M60.3,45.6 L54.4,39.7" stroke-width="0.9"/>
    <path d="M63.7,42.3 L57.7,36.3" stroke-width="0.9"/>
    <path d="M67.1,38.9 L61.1,32.9" stroke-width="0.9"/>
    <circle cx="47" cy="53" r="2.2" fill="#0C4A45" stroke="none"/>
    <path d="M97,106
        C96,102 95,98 94,93
        C92,87 89,85 88,77
        C87,71 90,68 89,62
        C88,57 86,53 89,50
        C90,46 94,45 97,47
        C99,43 103,43 105,47
        C108,45 111,46 111,51
        C113,55 111,59 112,64
        C113,70 116,73 114,80
        C112,88 110,93 109,99
        C108,103 108,104 107,106"/>
  </g>
</svg>